<mxfile host="Electron" modified="2023-04-23T03:51:21.293Z" agent="Mozilla/5.0 (Windows NT 10.0; Win64; x64) AppleWebKit/537.36 (KHTML, like Gecko) draw.io/21.2.1 Chrome/112.0.5615.87 Electron/24.1.2 Safari/537.36" etag="nCraIh0xht5NFpFjmUiI" version="21.2.1" type="device">
  <diagram name="第 1 页" id="YtFABgkwLiyigikmIwG0">
    <mxGraphModel dx="1863" dy="606" grid="1" gridSize="10" guides="1" tooltips="1" connect="1" arrows="1" fold="1" page="1" pageScale="1" pageWidth="827" pageHeight="1169" math="0" shadow="0">
      <root>
        <mxCell id="0" />
        <mxCell id="1" parent="0" />
        <mxCell id="4sNnhh9AsZh1qvISi4vj-38" value="" style="rounded=1;whiteSpace=wrap;html=1;glass=0;dashed=1;strokeWidth=1;fontStyle=1;dashPattern=8 8;opacity=80;fillColor=#fad7ac;strokeColor=#b46504;" parent="1" vertex="1">
          <mxGeometry x="310" y="300" width="480" height="135" as="geometry" />
        </mxCell>
        <mxCell id="4sNnhh9AsZh1qvISi4vj-35" value="" style="rounded=1;whiteSpace=wrap;html=1;glass=0;strokeWidth=1;fillColor=#fad9d5;strokeColor=#ae4132;fontStyle=1;dashed=1;dashPattern=12 12;shadow=0;opacity=80;" parent="1" vertex="1">
          <mxGeometry x="-100" y="200" width="295" height="100" as="geometry" />
        </mxCell>
        <mxCell id="4sNnhh9AsZh1qvISi4vj-3" value="Throwable" style="rounded=1;whiteSpace=wrap;html=1;fillColor=#1ba1e2;fontColor=#ffffff;strokeColor=#006EAF;" parent="1" vertex="1">
          <mxGeometry x="230" y="100" width="120" height="60" as="geometry" />
        </mxCell>
        <mxCell id="4sNnhh9AsZh1qvISi4vj-12" style="edgeStyle=orthogonalEdgeStyle;rounded=0;orthogonalLoop=1;jettySize=auto;html=1;exitX=0.5;exitY=0;exitDx=0;exitDy=0;entryX=0.5;entryY=1;entryDx=0;entryDy=0;" parent="1" source="4sNnhh9AsZh1qvISi4vj-4" target="4sNnhh9AsZh1qvISi4vj-3" edge="1">
          <mxGeometry relative="1" as="geometry" />
        </mxCell>
        <mxCell id="4sNnhh9AsZh1qvISi4vj-4" value="Error" style="rounded=1;whiteSpace=wrap;html=1;fillColor=#e51400;fontColor=#ffffff;strokeColor=#B20000;" parent="1" vertex="1">
          <mxGeometry x="50" y="220" width="120" height="60" as="geometry" />
        </mxCell>
        <mxCell id="4sNnhh9AsZh1qvISi4vj-13" style="edgeStyle=orthogonalEdgeStyle;rounded=0;orthogonalLoop=1;jettySize=auto;html=1;exitX=0.5;exitY=0;exitDx=0;exitDy=0;entryX=0.5;entryY=1;entryDx=0;entryDy=0;" parent="1" source="4sNnhh9AsZh1qvISi4vj-5" target="4sNnhh9AsZh1qvISi4vj-3" edge="1">
          <mxGeometry relative="1" as="geometry">
            <mxPoint x="360" y="180" as="targetPoint" />
          </mxGeometry>
        </mxCell>
        <mxCell id="4sNnhh9AsZh1qvISi4vj-5" value="Exception" style="rounded=1;whiteSpace=wrap;html=1;fillColor=#60a917;strokeColor=#2D7600;fontColor=#ffffff;" parent="1" vertex="1">
          <mxGeometry x="414" y="220" width="120" height="60" as="geometry" />
        </mxCell>
        <mxCell id="4sNnhh9AsZh1qvISi4vj-14" style="edgeStyle=orthogonalEdgeStyle;rounded=0;orthogonalLoop=1;jettySize=auto;html=1;exitX=0.5;exitY=0;exitDx=0;exitDy=0;entryX=0.5;entryY=1;entryDx=0;entryDy=0;" parent="1" source="4sNnhh9AsZh1qvISi4vj-6" target="4sNnhh9AsZh1qvISi4vj-4" edge="1">
          <mxGeometry relative="1" as="geometry" />
        </mxCell>
        <mxCell id="4sNnhh9AsZh1qvISi4vj-6" value="OutOfMemoryException" style="rounded=1;whiteSpace=wrap;html=1;fillColor=#e51400;fontColor=#ffffff;strokeColor=#B20000;" parent="1" vertex="1">
          <mxGeometry x="40" y="350" width="140" height="60" as="geometry" />
        </mxCell>
        <mxCell id="4sNnhh9AsZh1qvISi4vj-15" style="edgeStyle=orthogonalEdgeStyle;rounded=0;orthogonalLoop=1;jettySize=auto;html=1;exitX=0.5;exitY=0;exitDx=0;exitDy=0;entryX=0.5;entryY=1;entryDx=0;entryDy=0;" parent="1" source="4sNnhh9AsZh1qvISi4vj-7" target="4sNnhh9AsZh1qvISi4vj-5" edge="1">
          <mxGeometry relative="1" as="geometry" />
        </mxCell>
        <mxCell id="4sNnhh9AsZh1qvISi4vj-7" value="CheckedException" style="rounded=1;whiteSpace=wrap;html=1;fillColor=#60a917;fontColor=#ffffff;strokeColor=#2D7600;" parent="1" vertex="1">
          <mxGeometry x="330" y="350" width="120" height="60" as="geometry" />
        </mxCell>
        <mxCell id="4sNnhh9AsZh1qvISi4vj-16" style="edgeStyle=orthogonalEdgeStyle;rounded=0;orthogonalLoop=1;jettySize=auto;html=1;exitX=0.5;exitY=0;exitDx=0;exitDy=0;entryX=0.5;entryY=1;entryDx=0;entryDy=0;" parent="1" source="4sNnhh9AsZh1qvISi4vj-8" target="4sNnhh9AsZh1qvISi4vj-5" edge="1">
          <mxGeometry relative="1" as="geometry" />
        </mxCell>
        <mxCell id="4sNnhh9AsZh1qvISi4vj-8" value="UnCheckedException" style="rounded=1;whiteSpace=wrap;html=1;fillColor=#60a917;fontColor=#ffffff;strokeColor=#2D7600;" parent="1" vertex="1">
          <mxGeometry x="490" y="350" width="120" height="60" as="geometry" />
        </mxCell>
        <mxCell id="4sNnhh9AsZh1qvISi4vj-17" style="edgeStyle=orthogonalEdgeStyle;rounded=0;orthogonalLoop=1;jettySize=auto;html=1;exitX=0.5;exitY=0;exitDx=0;exitDy=0;entryX=0.5;entryY=1;entryDx=0;entryDy=0;" parent="1" source="4sNnhh9AsZh1qvISi4vj-9" target="4sNnhh9AsZh1qvISi4vj-7" edge="1">
          <mxGeometry relative="1" as="geometry" />
        </mxCell>
        <mxCell id="4sNnhh9AsZh1qvISi4vj-9" value="IOException" style="rounded=1;whiteSpace=wrap;html=1;fillColor=#60a917;fontColor=#ffffff;strokeColor=#2D7600;" parent="1" vertex="1">
          <mxGeometry x="330" y="470" width="120" height="60" as="geometry" />
        </mxCell>
        <mxCell id="4sNnhh9AsZh1qvISi4vj-18" style="edgeStyle=orthogonalEdgeStyle;rounded=0;orthogonalLoop=1;jettySize=auto;html=1;exitX=0.5;exitY=0;exitDx=0;exitDy=0;entryX=0.5;entryY=1;entryDx=0;entryDy=0;" parent="1" source="4sNnhh9AsZh1qvISi4vj-10" target="4sNnhh9AsZh1qvISi4vj-8" edge="1">
          <mxGeometry relative="1" as="geometry" />
        </mxCell>
        <mxCell id="4sNnhh9AsZh1qvISi4vj-10" value="RuntimeException" style="rounded=1;whiteSpace=wrap;html=1;fillColor=#60a917;fontColor=#ffffff;strokeColor=#2D7600;" parent="1" vertex="1">
          <mxGeometry x="490" y="470" width="120" height="60" as="geometry" />
        </mxCell>
        <mxCell id="4sNnhh9AsZh1qvISi4vj-19" style="edgeStyle=orthogonalEdgeStyle;rounded=0;orthogonalLoop=1;jettySize=auto;html=1;exitX=0.5;exitY=0;exitDx=0;exitDy=0;entryX=0.5;entryY=1;entryDx=0;entryDy=0;" parent="1" source="4sNnhh9AsZh1qvISi4vj-11" target="4sNnhh9AsZh1qvISi4vj-10" edge="1">
          <mxGeometry relative="1" as="geometry" />
        </mxCell>
        <mxCell id="4sNnhh9AsZh1qvISi4vj-11" value="NullPointerException" style="rounded=1;whiteSpace=wrap;html=1;fillColor=#60a917;fontColor=#ffffff;strokeColor=#2D7600;" parent="1" vertex="1">
          <mxGeometry x="490" y="585" width="120" height="60" as="geometry" />
        </mxCell>
        <mxCell id="4sNnhh9AsZh1qvISi4vj-37" value="Error至少都是JVM&lt;br&gt;级别的报错，应用无需处理" style="text;align=center;verticalAlign=middle;resizable=0;points=[];autosize=1;strokeColor=none;fillColor=none;fontColor=#FF0000;html=1;fontStyle=1;rounded=0;" parent="1" vertex="1">
          <mxGeometry x="-110" y="200" width="170" height="40" as="geometry" />
        </mxCell>
        <mxCell id="4sNnhh9AsZh1qvISi4vj-39" value="CheckedException和UncheckedException&lt;br&gt;仅仅表示逻辑概念，没有具体的接口类与之对应" style="text;align=center;verticalAlign=middle;resizable=0;points=[];autosize=1;strokeColor=none;fillColor=none;fontColor=#FF0000;html=1;fontStyle=1;rounded=0;dashed=1;dashPattern=8 8;" parent="1" vertex="1">
          <mxGeometry x="520" y="300" width="280" height="40" as="geometry" />
        </mxCell>
      </root>
    </mxGraphModel>
  </diagram>
</mxfile>
